<svg width="27" height="25" viewBox="0 0 27 25" fill="none" xmlns="http://www.w3.org/2000/svg">
<path fill-rule="evenodd" clip-rule="evenodd" d="M15.1635 24.2834C15.6805 24.744 16.349 24.998 17.0414 24.997C17.5408 24.9805 18.0269 24.8315 18.4498 24.5651L20.9848 23.1004C22.0353 22.4944 22.58 21.284 22.3369 20.0959L21.9519 18.218C21.9198 18.0036 21.963 17.7846 22.074 17.5983C22.1736 17.4126 22.337 17.2693 22.534 17.1946L24.3649 16.6406C25.516 16.2564 26.2915 15.1782 26.2897 13.9647V11.0353C26.2674 9.83167 25.4827 8.77528 24.3368 8.40631L22.534 7.80541C22.3277 7.71623 22.1632 7.55169 22.074 7.34534C21.963 7.15907 21.9198 6.94011 21.9519 6.72565L22.3369 4.84781C22.58 3.65967 22.0353 2.44929 20.9848 1.84327L18.4498 0.378557C17.4005 -0.228347 16.0807 -0.0959876 15.1729 0.707179L13.5204 2.17189C13.2702 2.15849 13.0195 2.15849 12.7693 2.17189L11.1168 0.763514C10.209 -0.0396525 8.88918 -0.172012 7.83997 0.434893L5.30489 1.89961C4.2544 2.50562 3.70973 3.716 3.95285 4.90415L4.3378 6.78198C4.3699 6.99644 4.32677 7.2154 4.21574 7.40167C4.11613 7.58735 3.95272 7.73075 3.75568 7.80541L1.92478 8.36876C0.777052 8.75192 0.00226367 9.82529 0 11.0353V13.9647C0.00226367 15.1747 0.777052 16.2481 1.92478 16.6312L3.75568 17.1946C3.96203 17.2838 4.12657 17.4483 4.21574 17.6547C4.32677 17.8409 4.3699 18.0599 4.3378 18.2744L3.95285 20.1522C3.70973 21.3403 4.2544 22.5507 5.30489 23.1567L7.83997 24.6214C8.88918 25.2283 10.209 25.096 11.1168 24.2928L12.7693 22.8281H13.5204L15.1635 24.2834ZM14.4781 21.185C14.2937 21.0315 14.0608 20.9483 13.8208 20.9503L13.7081 20.8752C13.2988 20.907 12.8875 20.907 12.4782 20.8752C12.2243 20.856 11.9736 20.9407 11.7834 21.1099L9.8398 22.8375C9.5385 23.1048 9.1003 23.1501 8.75066 22.9502L6.21558 21.4855C5.86415 21.2831 5.68239 20.8779 5.7649 20.4808L6.14985 18.603C6.26473 17.959 6.15187 17.295 5.83062 16.7251C5.50007 16.1308 4.96178 15.6795 4.31896 15.4576L2.51624 14.8567C2.13381 14.7275 1.87673 14.3684 1.87777 13.9647V11.0353C1.87673 10.6316 2.13381 10.2725 2.51624 10.1433L4.31896 9.54241C4.97859 9.31736 5.52868 8.85113 5.85879 8.23731C6.18003 7.66743 6.2929 7.0035 6.17802 6.35947L5.79306 4.48163C5.71056 4.08456 5.89231 3.6794 6.24375 3.47699L8.77883 2.01228C9.12846 1.81234 9.56667 1.85767 9.86797 2.12495L11.8209 3.85256C12.0224 4.02158 12.2816 4.10574 12.5439 4.08729C12.9533 4.05542 13.3645 4.05542 13.7739 4.08729C14.0277 4.10647 14.2785 4.02176 14.4687 3.85256L16.4216 2.15312C16.7229 1.88584 17.1611 1.84051 17.5108 2.04044L20.0459 3.50516C20.3973 3.70756 20.579 4.11273 20.4965 4.5098L20.1116 6.38764C19.9967 7.03166 20.1096 7.69559 20.4308 8.26548C20.7596 8.86331 21.2981 9.3182 21.9425 9.54241L23.7452 10.1433C24.1276 10.2725 24.3847 10.6316 24.3837 11.0353V14.0304C24.3847 14.4341 24.1276 14.7932 23.7452 14.9224L21.9425 15.5233C21.2981 15.7475 20.7596 16.2024 20.4308 16.8002C20.1096 17.3701 19.9967 18.0341 20.1116 18.6781L20.4965 20.5559C20.579 20.953 20.3973 21.3582 20.0459 21.5606L17.5108 23.0253C17.1611 23.2252 16.7229 23.1799 16.4216 22.9126L14.4781 21.185Z" fill="white"/>
<path fill-rule="evenodd" clip-rule="evenodd" d="M8.4502 12.5C8.4502 15.0928 10.552 17.1946 13.1448 17.1946C14.3899 17.1946 15.584 16.7 16.4644 15.8196C17.3448 14.9392 17.8394 13.7451 17.8394 12.5C17.8394 9.90725 15.7375 7.8054 13.1448 7.8054C10.552 7.8054 8.4502 9.90725 8.4502 12.5ZM10.3283 12.5C10.3283 10.9443 11.5894 9.68324 13.1451 9.68324C14.7007 9.68324 15.9618 10.9443 15.9618 12.5C15.9618 14.0557 14.7007 15.3168 13.1451 15.3168C11.5894 15.3168 10.3283 14.0557 10.3283 12.5Z" fill="white"/>
</svg>
