<svg width="25" height="25" viewBox="0 0 25 25" fill="none" xmlns="http://www.w3.org/2000/svg">
<path fill-rule="evenodd" clip-rule="evenodd" d="M25 12.5C25 5.60526 19.3947 0 12.5 0C5.60526 0 0 5.60526 0 12.5C0 19.3947 5.60526 25 12.5 25C19.3947 25 25 19.3947 25 12.5ZM2.02637 12.5C2.02637 11.0526 2.31584 9.6579 2.86847 8.39474C3.71058 8.94737 4.73689 9.39474 5.89479 9.78947C5.78953 10.6579 5.73689 11.5526 5.73689 12.5C5.73689 13.4474 5.78953 14.3421 5.89479 15.2105C4.73689 15.5789 3.71058 16.0526 2.86847 16.6053C2.31584 15.3421 2.02637 13.9474 2.02637 12.5ZM17.1317 14.6579C17.2106 13.9737 17.2369 13.2632 17.2369 12.5C17.2369 11.7368 17.1843 11.0263 17.1317 10.3421C15.9738 10.5789 14.7633 10.7105 13.5264 10.7632V14.2368C14.7633 14.2895 15.9738 14.4211 17.1317 14.6579ZM7.76306 12.5C7.76306 11.7368 7.78938 11.0263 7.86832 10.3421C8.9999 10.5789 10.2367 10.7105 11.4736 10.7632V14.2368C10.2367 14.2895 9.02622 14.4211 7.86832 14.6579C7.81569 13.9737 7.76306 13.2632 7.76306 12.5ZM13.5264 2.31579V8.71052C14.658 8.68421 15.7633 8.55263 16.8159 8.31579C16.1843 5.23684 14.8685 3.07895 13.5264 2.31579ZM11.4737 2.31579V8.71052C10.3421 8.65789 9.21052 8.52631 8.1842 8.31579C8.81578 5.23684 10.1316 3.07895 11.4737 2.31579ZM11.4737 22.6579V16.2632C10.3421 16.3158 9.23684 16.4737 8.1842 16.6842C8.81578 19.7632 10.1316 21.9211 11.4737 22.6579ZM13.5264 22.6842V16.2632C14.658 16.3158 15.7896 16.4474 16.8159 16.6579C16.1843 19.7632 14.8685 21.9211 13.5264 22.6842ZM22.1315 8.39474C21.2894 8.94737 20.2631 9.42105 19.1052 9.78947C19.2105 10.6579 19.2631 11.5526 19.2631 12.5C19.2631 13.4474 19.2105 14.3421 19.1052 15.2105C20.2368 15.5789 21.2894 16.0526 22.1315 16.6053C22.6842 15.3421 22.9736 13.9737 22.9736 12.5C22.9736 11.0263 22.6579 9.6579 22.1315 8.39474ZM21.1579 6.60526C20.5 7.05263 19.6842 7.44737 18.7895 7.76316C18.3947 5.92105 17.7631 4.28947 16.9737 3.02631C18.6579 3.8421 20.1053 5.07895 21.1579 6.60526ZM6.2369 7.76316C6.63164 5.92105 7.26322 4.28947 8.05269 3.02631C6.34216 3.8421 4.89479 5.07895 3.84216 6.60526C4.50006 7.05263 5.31585 7.44737 6.2369 7.76316ZM3.84216 18.3947C4.50006 17.9474 5.28953 17.5526 6.2369 17.2368C6.63164 19.0789 7.26322 20.7105 8.05269 21.9737C6.34216 21.1579 4.89479 19.921 3.84216 18.3947ZM18.7632 17.2368C18.3685 19.0789 17.7369 20.7105 16.9474 21.9737C18.658 21.1579 20.1053 19.921 21.1316 18.3947C20.4737 17.9474 19.6843 17.5526 18.7632 17.2368Z" fill="white"/>
</svg>
